<?xml version="1.0" encoding="UTF-8" standalone="no"?>
<!-- Created with Inkscape (http://www.inkscape.org/) -->

<svg
   width="4.9875317mm"
   height="4.3861518mm"
   viewBox="0 0 4.9875316 4.3861519"
   version="1.1"
   id="svg5"
   inkscape:version="1.2.2 (b0a8486541, 2022-12-01)"
   sodipodi:docname="x_logo.svg"
   xmlns:inkscape="http://www.inkscape.org/namespaces/inkscape"
   xmlns:sodipodi="http://sodipodi.sourceforge.net/DTD/sodipodi-0.dtd"
   xmlns="http://www.w3.org/2000/svg"
   xmlns:svg="http://www.w3.org/2000/svg">
  <sodipodi:namedview
     id="namedview7"
     pagecolor="#ffffff"
     bordercolor="#000000"
     borderopacity="0.25"
     inkscape:showpageshadow="2"
     inkscape:pageopacity="0.0"
     inkscape:pagecheckerboard="0"
     inkscape:deskcolor="#d1d1d1"
     inkscape:document-units="mm"
     showgrid="false"
     inkscape:zoom="22.627417"
     inkscape:cx="-0.48613591"
     inkscape:cy="6.3860581"
     inkscape:window-width="1920"
     inkscape:window-height="945"
     inkscape:window-x="0"
     inkscape:window-y="32"
     inkscape:window-maximized="1"
     inkscape:current-layer="text277"
     showguides="true">
    <sodipodi:guide
       position="4.8047667,0.74098656"
       orientation="0,-1"
       id="guide1516"
       inkscape:locked="false" />
    <sodipodi:guide
       position="5.1334288,0.74098658"
       orientation="0,-1"
       id="guide1518"
       inkscape:locked="false" />
  </sodipodi:namedview>
  <defs
     id="defs2" />
  <g
     inkscape:label="Layer 1"
     inkscape:groupmode="layer"
     id="layer1"
     transform="translate(-42.900917,-180.16792)">
    <rect
       style="fill:none;stroke:#000000;stroke-width:0.264583"
       id="rect111"
       width="74.713043"
       height="33.971596"
       x="15.325069"
       y="56.095814" />
    <g
       id="g564">
      <path
         id="rect557"
         style="fill:#ffcc00;stroke-width:0.0962244"
         d="m 42.900917,180.16792 h 4.987532 v 4.38615 h -4.987532 z" />
      <g
         aria-label="x"
         id="text277"
         style="font-weight:bold;font-size:7.05556px;font-family:monospace;-inkscape-font-specification:'monospace, Bold';fill:#800000;stroke-width:0.264583">
        <path
           d="m 45.914893,181.89291 1.071426,0.91984 q 0.192925,0.0103 0.289388,0.11025 0.09646,0.0965 0.09646,0.2446 0,0.15503 -0.110244,0.25493 -0.106798,0.0965 -0.361735,0.0965 h -0.802708 q -0.254937,0 -0.36518,-0.0965 -0.106798,-0.0999 -0.106798,-0.26182 0,-0.12403 0.07579,-0.21704 0.07924,-0.0965 0.213596,-0.13092 l -0.5271,-0.45475 -0.537435,0.45475 q 0.16192,0.0413 0.230822,0.12747 0.07235,0.0861 0.07235,0.22049 0,0.16192 -0.106798,0.26182 -0.106798,0.0965 -0.361736,0.0965 h -0.795817 q -0.254937,0 -0.365181,-0.0965 -0.106798,-0.0999 -0.106798,-0.25838 0,-0.14469 0.09646,-0.24115 0.09646,-0.0999 0.289388,-0.11025 l 1.04731,-0.92328 -0.926731,-0.79238 q -0.18259,-0.0138 -0.279053,-0.11024 -0.09302,-0.0999 -0.09302,-0.2446 0,-0.15503 0.106798,-0.25149 0.110243,-0.0999 0.365181,-0.0999 h 0.661458 q 0.254938,0 0.361736,0.0999 0.110243,0.0965 0.110243,0.24804 0,0.20326 -0.192926,0.33073 l 0.427192,0.35485 0.420302,-0.36174 q -0.18948,-0.13436 -0.18948,-0.31006 0,-0.16536 0.106798,-0.26182 0.110243,-0.0999 0.36518,-0.0999 h 0.654569 q 0.254937,0 0.361735,0.0999 0.110243,0.0965 0.110243,0.25493 0,0.14125 -0.09646,0.24116 -0.09302,0.0965 -0.279053,0.11024 z"
           style="font-family:'Courier New';-inkscape-font-specification:'Courier New, Bold'"
           id="path1523" />
      </g>
      <path
         id="rect1510"
         style="fill:#800000;stroke-width:0.300034"
         d="m 42.900917,183.73267 h 4.987532 v 0.15276 h -4.987532 z" />
      <path
         id="rect1514"
         style="fill:#800000;stroke-width:0.300034"
         d="m 42.900917,184.26324 h 4.987532 v 0.15277 h -4.987532 z" />
      <path
         id="rect1520"
         style="fill:#800000;stroke-width:0.300034"
         d="m 42.900917,183.99796 h 4.987532 v 0.15276 h -4.987532 z" />
    </g>
  </g>
</svg>
