<?xml version="1.0" encoding="UTF-8" standalone="no"?>
<!-- Created with Inkscape (http://www.inkscape.org/) -->

<svg
   width="19.140551mm"
   height="7.8558202mm"
   viewBox="0 0 19.14055 7.8558202"
   version="1.1"
   id="svg5"
   inkscape:version="1.2.2 (b0a8486541, 2022-12-01)"
   sodipodi:docname="xDev_WeAreWeCan.svg"
   inkscape:export-filename="xDev_WeAreWeCan.png"
   inkscape:export-xdpi="600"
   inkscape:export-ydpi="600"
   xmlns:inkscape="http://www.inkscape.org/namespaces/inkscape"
   xmlns:sodipodi="http://sodipodi.sourceforge.net/DTD/sodipodi-0.dtd"
   xmlns="http://www.w3.org/2000/svg"
   xmlns:svg="http://www.w3.org/2000/svg">
  <sodipodi:namedview
     id="namedview7"
     pagecolor="#ffffff"
     bordercolor="#000000"
     borderopacity="0.25"
     inkscape:showpageshadow="2"
     inkscape:pageopacity="0.0"
     inkscape:pagecheckerboard="0"
     inkscape:deskcolor="#000000"
     inkscape:document-units="mm"
     showgrid="false"
     inkscape:zoom="15.642377"
     inkscape:cx="54.243676"
     inkscape:cy="18.571347"
     inkscape:window-width="1920"
     inkscape:window-height="945"
     inkscape:window-x="0"
     inkscape:window-y="32"
     inkscape:window-maximized="1"
     inkscape:current-layer="text277" />
  <defs
     id="defs2" />
  <g
     inkscape:label="Layer 1"
     inkscape:groupmode="layer"
     id="layer1"
     transform="translate(-42.449909,-178.1893)">
    <rect
       style="fill:none;stroke:#000000;stroke-width:0.264583"
       id="rect111"
       width="74.713043"
       height="33.971596"
       x="15.325069"
       y="56.095814" />
    <g
       id="g564">
      <path
         id="rect557"
         style="fill:#000000;stroke-width:0.252276"
         d="M 42.449909,178.1893 H 61.59046 v 7.85582 H 42.449909 Z" />
      <g
         id="g837"
         transform="translate(-0.09129733,-0.28347939)">
        <g
           aria-label="xDev"
           id="text277"
           style="font-weight:bold;font-size:7.05556px;font-family:monospace;-inkscape-font-specification:'monospace, Bold';fill:#000000;stroke-width:0.264583">
          <path
             d="m 46.207271,181.89291 1.071425,0.91984 q 0.192926,0.0103 0.289388,0.11025 0.09646,0.0965 0.09646,0.2446 0,0.15503 -0.110243,0.25493 -0.106798,0.0965 -0.361735,0.0965 h -0.802708 q -0.254937,0 -0.36518,-0.0965 -0.106798,-0.0999 -0.106798,-0.26182 0,-0.12403 0.07579,-0.21704 0.07924,-0.0965 0.213596,-0.13092 l -0.5271,-0.45475 -0.537435,0.45475 q 0.161919,0.0413 0.230821,0.12747 0.07235,0.0861 0.07235,0.22049 0,0.16192 -0.106798,0.26182 -0.106798,0.0965 -0.361735,0.0965 h -0.795818 q -0.254937,0 -0.36518,-0.0965 -0.106798,-0.0999 -0.106798,-0.25838 0,-0.14469 0.09646,-0.24115 0.09646,-0.0999 0.289388,-0.11025 l 1.04731,-0.92328 -0.926732,-0.79238 q -0.18259,-0.0138 -0.279053,-0.11024 -0.09302,-0.0999 -0.09302,-0.2446 0,-0.15503 0.106798,-0.25149 0.110243,-0.0999 0.36518,-0.0999 h 0.661459 q 0.254937,0 0.361735,0.0999 0.110243,0.0965 0.110243,0.24804 0,0.20326 -0.192925,0.33073 l 0.427192,0.35485 0.420302,-0.36174 q -0.189481,-0.13436 -0.189481,-0.31006 0,-0.16536 0.106798,-0.26182 0.110244,-0.0999 0.365181,-0.0999 h 0.654568 q 0.254938,0 0.361736,0.0999 0.110243,0.0965 0.110243,0.25493 0,0.14125 -0.09646,0.24116 -0.09302,0.0965 -0.279053,0.11024 z"
             style="font-family:'Courier New';-inkscape-font-specification:'Courier New, Bold'"
             id="path1544" />
          <path
             d="m 48.332896,182.81275 v -2.76297 q -0.223931,-0.003 -0.330729,-0.0999 -0.106798,-0.0999 -0.106798,-0.25494 0,-0.15848 0.106798,-0.25494 0.110243,-0.0999 0.36518,-0.0999 l 1.477947,0.003 q 0.34451,0 0.671794,0.12747 0.330729,0.12747 0.530545,0.32384 0.151584,0.14814 0.313504,0.40652 0.165365,0.25838 0.248047,0.51332 0.08268,0.25493 0.08268,0.62356 v 0.33762 q 0,0.44786 -0.151584,0.79582 -0.151584,0.34451 -0.399631,0.56499 -0.244602,0.21704 -0.461644,0.3204 -0.344509,0.16192 -0.89228,0.16192 h -1.41938 q -0.254937,0 -0.36518,-0.0965 -0.106798,-0.0999 -0.106798,-0.25838 0,-0.15503 0.106798,-0.25494 0.110243,-0.0999 0.330729,-0.0965 z m 0.706245,0 h 0.751031 q 0.420302,0 0.633898,-0.12058 0.279053,-0.15847 0.420302,-0.40307 0.141249,-0.2446 0.141249,-0.6339 v -0.33418 q 0,-0.33417 -0.127468,-0.58566 -0.199816,-0.39274 -0.451308,-0.53744 -0.248047,-0.14814 -0.623563,-0.14814 h -0.744141 z"
             style="font-family:'Courier New';-inkscape-font-specification:'Courier New, Bold'"
             id="path1546" />
          <path
             d="m 55.919001,182.31321 h -2.897327 q 0.110243,0.27561 0.389296,0.44442 0.282498,0.16881 0.761366,0.16881 0.392742,0 1.043865,-0.16881 0.268718,-0.0689 0.372071,-0.0689 0.141249,0 0.237711,0.0999 0.09646,0.0999 0.09646,0.25149 0,0.1378 -0.103353,0.23427 -0.137804,0.12746 -0.671794,0.2446 -0.53399,0.11369 -1.026639,0.11369 -0.847494,0 -1.357368,-0.47887 -0.50643,-0.47887 -0.50643,-1.17823 0,-0.74414 0.547771,-1.20923 0.551215,-0.46853 1.267796,-0.46853 0.430637,0 0.788927,0.15159 0.361735,0.15158 0.537435,0.32728 0.248047,0.25494 0.409967,0.63045 0.110243,0.26183 0.110243,0.60634 z m -0.782037,-0.70624 q -0.16192,-0.30317 -0.423747,-0.45131 -0.261828,-0.15158 -0.623563,-0.15158 -0.35829,0 -0.620117,0.15158 -0.261828,0.14814 -0.427193,0.45131 z"
             style="font-family:'Courier New';-inkscape-font-specification:'Courier New, Bold'"
             id="path1548" />
          <path
             d="m 58.385691,182.66117 0.761366,-1.56408 c -0.188332,0 -0.30891,-0.0161 -0.361735,-0.0482 -0.114837,-0.0712 -0.172255,-0.1734 -0.172255,-0.30661 0,-0.10335 0.0356,-0.18718 0.106798,-0.25149 0.0735,-0.0666 0.195222,-0.0999 0.365181,-0.0999 h 0.968072 c 0.169958,0 0.290536,0.0333 0.361735,0.0999 0.0735,0.0643 0.110244,0.14931 0.110244,0.25493 0,0.10335 -0.03675,0.18833 -0.110244,0.25494 -0.0712,0.0643 -0.191777,0.0965 -0.361735,0.0965 h -0.117133 l -0.04619,0.0947 -1.135483,2.32725 h -0.737251 l -1.181668,-2.42191 h -0.09991 c -0.169958,0 -0.291685,-0.0322 -0.36518,-0.0965 -0.0712,-0.0666 -0.106798,-0.15273 -0.106798,-0.25838 0,-0.10335 0.0356,-0.18718 0.106798,-0.25149 0.0735,-0.0666 0.195222,-0.0999 0.36518,-0.0999 h 0.947402 c 0.167661,0 0.287091,0.0333 0.35829,0.0999 0.0735,0.0643 0.110243,0.14931 0.110243,0.25493 0,0.13091 -0.05512,0.23082 -0.165364,0.29973 -0.05512,0.0345 -0.177995,0.0517 -0.368626,0.0517 z"
             style="font-family:'Courier New';-inkscape-font-specification:'Courier New, Bold'"
             id="path1550"
             sodipodi:nodetypes="cccscsscscscccccscscsscsccc" />
        </g>
        <g
           aria-label="WeAre...,WeCan!!!"
           id="text277-9"
           style="font-weight:bold;font-size:0.800041px;font-family:monospace;-inkscape-font-specification:'monospace, Bold';fill:#000000;stroke-width:0.0300015">
          <path
             d="m 52.530019,185.67415 -0.07422,0.22735 h -0.08985 l -0.04766,-0.39338 q -0.01836,-0.002 -0.02774,-0.0125 -0.0094,-0.0105 -0.0094,-0.0266 0,-0.0188 0.01211,-0.0301 0.0125,-0.0113 0.04141,-0.0113 l 0.106646,3.9e-4 q 0.02891,0 0.04102,0.0109 0.0125,0.0109 0.0125,0.0289 0,0.018 -0.0125,0.0293 -0.01211,0.0109 -0.04102,0.0109 h -0.0418 l 0.02656,0.22384 0.06289,-0.18633 h 0.08321 l 0.0625,0.18633 0.02656,-0.22384 h -0.0418 q -0.02891,0 -0.04141,-0.0109 -0.01211,-0.0113 -0.01211,-0.0293 0,-0.018 0.01211,-0.0289 0.0125,-0.0113 0.04141,-0.0113 l 0.106256,3.9e-4 q 0.02891,0 0.04102,0.0109 0.0125,0.0109 0.0125,0.0289 0,0.0152 -0.0098,0.0262 -0.0098,0.0109 -0.02813,0.0141 l -0.0461,0.39338 h -0.08829 z"
             style="font-family:'Courier New';-inkscape-font-specification:'Courier New, Bold'"
             id="path1553" />
          <path
             d="m 53.210913,185.76478 h -0.328532 q 0.0125,0.0312 0.04414,0.0504 0.03203,0.0191 0.08633,0.0191 0.04453,0 0.118365,-0.0191 0.03047,-0.008 0.04219,-0.008 0.01602,0 0.02696,0.0113 0.01094,0.0113 0.01094,0.0285 0,0.0156 -0.01172,0.0266 -0.01563,0.0144 -0.07617,0.0277 -0.06055,0.0129 -0.116413,0.0129 -0.0961,0 -0.153914,-0.0543 -0.05743,-0.0543 -0.05743,-0.1336 0,-0.0844 0.06211,-0.13712 0.0625,-0.0531 0.143757,-0.0531 0.04883,0 0.08946,0.0172 0.04102,0.0172 0.06094,0.0371 0.02813,0.0289 0.04649,0.0715 0.0125,0.0297 0.0125,0.0688 z m -0.08868,-0.0801 q -0.01836,-0.0344 -0.04805,-0.0512 -0.02969,-0.0172 -0.07071,-0.0172 -0.04063,0 -0.07032,0.0172 -0.02969,0.0168 -0.04844,0.0512 z"
             style="font-family:'Courier New';-inkscape-font-specification:'Courier New, Bold'"
             id="path1555" />
          <path
             d="m 53.587885,185.77259 h -0.194541 l -0.01953,0.0488 h 0.01953 q 0.02891,0 0.04102,0.0113 0.0125,0.0109 0.0125,0.0289 0,0.0176 -0.0125,0.0289 -0.01211,0.0109 -0.04102,0.0109 h -0.107818 q -0.02891,0 -0.04102,-0.0109 -0.0125,-0.0113 -0.0125,-0.0293 0,-0.018 0.01289,-0.0293 0.01289,-0.0113 0.04258,-0.0106 l 0.125788,-0.3133 h -0.05235 q -0.02891,0 -0.04141,-0.0109 -0.01211,-0.0113 -0.01211,-0.0293 0,-0.018 0.01211,-0.0289 0.0125,-0.0113 0.04141,-0.0113 l 0.173055,3.9e-4 0.159384,0.39338 q 0.02813,0 0.03711,0.006 0.01797,0.0129 0.01797,0.034 0,0.0176 -0.01211,0.0289 -0.01211,0.0109 -0.04102,0.0109 h -0.107818 q -0.02891,0 -0.04141,-0.0109 -0.01211,-0.0113 -0.01211,-0.0293 0,-0.0176 0.01211,-0.0285 0.0125,-0.0113 0.04141,-0.0113 h 0.01953 z m -0.0332,-0.0801 -0.06446,-0.1586 -0.06485,0.1586 z"
             style="font-family:'Courier New';-inkscape-font-specification:'Courier New, Bold'"
             id="path1557" />
          <path
             d="m 53.953529,185.5468 v 0.05 q 0.05039,-0.0363 0.0793,-0.0484 0.0293,-0.0121 0.05469,-0.0121 0.03907,0 0.07579,0.0289 0.025,0.0195 0.025,0.0398 0,0.0172 -0.01211,0.0293 -0.01172,0.0117 -0.02852,0.0117 -0.01485,0 -0.03125,-0.0148 -0.01641,-0.0148 -0.0293,-0.0148 -0.0168,0 -0.05039,0.0211 -0.03321,0.0211 -0.08321,0.0633 v 0.12071 h 0.114069 q 0.02891,0 0.04102,0.0113 0.0125,0.0109 0.0125,0.0289 0,0.0176 -0.0125,0.0289 -0.01211,0.0109 -0.04102,0.0109 h -0.24181 q -0.02891,0 -0.04141,-0.0109 -0.01211,-0.0113 -0.01211,-0.0293 0,-0.0176 0.01211,-0.0285 0.0125,-0.0113 0.04141,-0.0113 h 0.04766 v -0.19454 h -0.02891 q -0.02891,0 -0.04141,-0.0109 -0.01211,-0.0113 -0.01211,-0.0293 0,-0.0176 0.01211,-0.0285 0.0125,-0.0113 0.04141,-0.0113 z"
             style="font-family:'Courier New';-inkscape-font-specification:'Courier New, Bold'"
             id="path1559" />
          <path
             d="m 54.651221,185.76478 h -0.328532 q 0.0125,0.0312 0.04414,0.0504 0.03203,0.0191 0.08633,0.0191 0.04453,0 0.118366,-0.0191 0.03047,-0.008 0.04219,-0.008 0.01602,0 0.02695,0.0113 0.01094,0.0113 0.01094,0.0285 0,0.0156 -0.01172,0.0266 -0.01563,0.0144 -0.07618,0.0277 -0.06055,0.0129 -0.116412,0.0129 -0.0961,0 -0.153915,-0.0543 -0.05742,-0.0543 -0.05742,-0.1336 0,-0.0844 0.06211,-0.13712 0.0625,-0.0531 0.143758,-0.0531 0.04883,0 0.08946,0.0172 0.04102,0.0172 0.06094,0.0371 0.02813,0.0289 0.04649,0.0715 0.0125,0.0297 0.0125,0.0688 z m -0.08868,-0.0801 q -0.01836,-0.0344 -0.04805,-0.0512 -0.02969,-0.0172 -0.07071,-0.0172 -0.04063,0 -0.07032,0.0172 -0.02969,0.0168 -0.04844,0.0512 z"
             style="font-family:'Courier New';-inkscape-font-specification:'Courier New, Bold'"
             id="path1561" />
          <path
             d="m 54.991473,185.86127 q 0,0.0227 -0.01602,0.0379 -0.01602,0.0152 -0.04414,0.0152 -0.02813,0 -0.04414,-0.0152 -0.01602,-0.0152 -0.01602,-0.0379 0,-0.0227 0.01602,-0.0379 0.01602,-0.0152 0.04414,-0.0152 0.02813,0 0.04414,0.0152 0.01602,0.0152 0.01602,0.0379 z"
             style="font-family:'Courier New';-inkscape-font-specification:'Courier New, Bold'"
             id="path1563" />
          <path
             d="m 55.471576,185.86127 q 0,0.0227 -0.01602,0.0379 -0.01602,0.0152 -0.04414,0.0152 -0.02813,0 -0.04414,-0.0152 -0.01602,-0.0152 -0.01602,-0.0379 0,-0.0227 0.01602,-0.0379 0.01602,-0.0152 0.04414,-0.0152 0.02813,0 0.04414,0.0152 0.01602,0.0152 0.01602,0.0379 z"
             style="font-family:'Courier New';-inkscape-font-specification:'Courier New, Bold'"
             id="path1565" />
          <path
             d="m 55.951679,185.86127 q 0,0.0227 -0.01602,0.0379 -0.01602,0.0152 -0.04414,0.0152 -0.02813,0 -0.04414,-0.0152 -0.01602,-0.0152 -0.01602,-0.0379 0,-0.0227 0.01602,-0.0379 0.01602,-0.0152 0.04414,-0.0152 0.02813,0 0.04414,0.0152 0.01602,0.0152 0.01602,0.0379 z"
             style="font-family:'Courier New';-inkscape-font-specification:'Courier New, Bold'"
             id="path1567" />
          <path
             d="m 56.351699,185.79369 h 0.107037 l -0.11524,0.2172 q -0.01016,0.0191 -0.02539,0.0191 -0.01016,0 -0.01758,-0.007 -0.007,-0.007 -0.007,-0.0148 0,-0.006 0.0027,-0.016 z"
             style="font-family:'Courier New';-inkscape-font-specification:'Courier New, Bold'"
             id="path1569" />
          <path
             d="m 56.850943,185.67415 -0.07422,0.22735 h -0.08985 l -0.04766,-0.39338 q -0.01836,-0.002 -0.02774,-0.0125 -0.0094,-0.0105 -0.0094,-0.0266 0,-0.0188 0.01211,-0.0301 0.0125,-0.0113 0.04141,-0.0113 l 0.106646,3.9e-4 q 0.02891,0 0.04102,0.0109 0.0125,0.0109 0.0125,0.0289 0,0.018 -0.0125,0.0293 -0.01211,0.0109 -0.04102,0.0109 h -0.0418 l 0.02656,0.22384 0.06289,-0.18633 h 0.08321 l 0.0625,0.18633 0.02656,-0.22384 h -0.0418 q -0.02891,0 -0.04141,-0.0109 -0.01211,-0.0113 -0.01211,-0.0293 0,-0.018 0.01211,-0.0289 0.0125,-0.0113 0.04141,-0.0113 l 0.106256,3.9e-4 q 0.02891,0 0.04102,0.0109 0.0125,0.0109 0.0125,0.0289 0,0.0152 -0.0098,0.0262 -0.0098,0.0109 -0.02813,0.0141 l -0.0461,0.39338 h -0.08828 z"
             style="font-family:'Courier New';-inkscape-font-specification:'Courier New, Bold'"
             id="path1571" />
          <path
             d="m 57.531838,185.76478 h -0.328533 q 0.0125,0.0312 0.04414,0.0504 0.03203,0.0191 0.08633,0.0191 0.04453,0 0.118365,-0.0191 0.03047,-0.008 0.04219,-0.008 0.01602,0 0.02695,0.0113 0.01094,0.0113 0.01094,0.0285 0,0.0156 -0.01172,0.0266 -0.01563,0.0144 -0.07618,0.0277 -0.06055,0.0129 -0.116412,0.0129 -0.0961,0 -0.153914,-0.0543 -0.05743,-0.0543 -0.05743,-0.1336 0,-0.0844 0.06211,-0.13712 0.0625,-0.0531 0.143758,-0.0531 0.04883,0 0.08946,0.0172 0.04102,0.0172 0.06094,0.0371 0.02813,0.0289 0.04649,0.0715 0.0125,0.0297 0.0125,0.0688 z m -0.08868,-0.0801 q -0.01836,-0.0344 -0.04805,-0.0512 -0.02969,-0.0172 -0.07071,-0.0172 -0.04063,0 -0.07032,0.0172 -0.02969,0.0168 -0.04844,0.0512 z"
             style="font-family:'Courier New';-inkscape-font-specification:'Courier New, Bold'"
             id="path1573" />
          <path
             d="m 57.936546,185.44836 q 0.0074,-0.0102 0.01602,-0.0152 0.009,-0.005 0.01914,-0.005 0.01758,0 0.02852,0.0121 0.01133,0.0121 0.01133,0.041 v 0.068 q 0,0.0289 -0.01133,0.0414 -0.01094,0.0121 -0.02852,0.0121 -0.01602,0 -0.02578,-0.009 -0.0098,-0.009 -0.01445,-0.0336 -0.0027,-0.0164 -0.01094,-0.0254 -0.01602,-0.0176 -0.04492,-0.0281 -0.02852,-0.0105 -0.05742,-0.0105 -0.03594,0 -0.06602,0.0156 -0.03008,0.0156 -0.05313,0.0508 -0.02305,0.0352 -0.02305,0.0836 v 0.052 q 0,0.0578 0.0418,0.0965 0.04219,0.0387 0.116803,0.0387 0.04453,0 0.07539,-0.0121 0.01797,-0.007 0.03828,-0.0277 0.0125,-0.0125 0.01953,-0.016 0.007,-0.004 0.01602,-0.004 0.01602,0 0.02813,0.0121 0.01211,0.0121 0.01211,0.0285 0,0.0164 -0.01641,0.0352 -0.02383,0.0273 -0.06133,0.043 -0.05039,0.0211 -0.111334,0.0211 -0.0711,0 -0.128131,-0.0293 -0.0461,-0.0234 -0.07852,-0.0738 -0.03242,-0.0508 -0.03242,-0.11055 v -0.0543 q 0,-0.0625 0.02891,-0.11641 0.0293,-0.0543 0.08086,-0.0836 0.05157,-0.0293 0.10938,-0.0293 0.03477,0 0.06485,0.008 0.03047,0.008 0.05664,0.0242 z"
             style="font-family:'Courier New';-inkscape-font-specification:'Courier New, Bold'"
             id="path1575" />
          <path
             d="m 58.36313,185.9015 v -0.0188 q -0.03008,0.016 -0.06641,0.0238 -0.03633,0.008 -0.06602,0.008 -0.06446,0 -0.104693,-0.034 -0.04024,-0.0344 -0.04024,-0.0758 0,-0.0504 0.05118,-0.0934 0.05157,-0.0434 0.142195,-0.0434 0.03633,0 0.08399,0.008 v -0.0191 q 0,-0.018 -0.01563,-0.0293 -0.01524,-0.0113 -0.0586,-0.0113 -0.03555,0 -0.09219,0.0141 -0.02109,0.005 -0.03281,0.005 -0.01602,0 -0.02735,-0.0113 -0.01094,-0.0117 -0.01094,-0.0297 0,-0.0102 0.0039,-0.0176 0.0039,-0.007 0.01094,-0.0117 0.007,-0.005 0.0293,-0.0109 0.02969,-0.008 0.06055,-0.0129 0.03086,-0.005 0.05586,-0.005 0.07461,0 0.115631,0.0324 0.04141,0.032 0.04141,0.0879 v 0.16485 h 0.01367 q 0.02891,0 0.04102,0.0113 0.0125,0.0109 0.0125,0.0289 0,0.0176 -0.0125,0.0289 -0.01211,0.0109 -0.04102,0.0109 z m 0,-0.14336 q -0.04805,-0.009 -0.08868,-0.009 -0.04883,0 -0.08399,0.0238 -0.02188,0.0152 -0.02188,0.0309 0,0.0113 0.01055,0.0184 0.01953,0.0129 0.05352,0.0129 0.02891,0 0.06524,-0.0113 0.03672,-0.0113 0.06524,-0.0309 z"
             style="font-family:'Courier New';-inkscape-font-specification:'Courier New, Bold'"
             id="path1577" />
          <path
             d="m 58.6901,185.5468 v 0.0269 q 0.02188,-0.0187 0.04805,-0.0281 0.02656,-0.009 0.05743,-0.009 0.0711,0 0.112505,0.0441 0.03281,0.0352 0.03281,0.0922 v 0.14883 q 0.02539,0 0.0375,0.0113 0.01211,0.0109 0.01211,0.0289 0,0.0176 -0.0125,0.0289 -0.01211,0.0109 -0.04102,0.0109 h -0.07227 q -0.02891,0 -0.04141,-0.0109 -0.01211,-0.0113 -0.01211,-0.0293 0,-0.0176 0.01211,-0.0285 0.01211,-0.0113 0.0375,-0.0113 v -0.15118 q 0,-0.0262 -0.01406,-0.0383 -0.01836,-0.0156 -0.05508,-0.0156 -0.02774,0 -0.04883,0.0109 -0.0207,0.0105 -0.05274,0.0453 v 0.14883 q 0.03086,0 0.03985,0.006 0.01914,0.0117 0.01914,0.0344 0,0.0176 -0.0125,0.0289 -0.01211,0.0109 -0.04102,0.0109 h -0.09102 q -0.02891,0 -0.04141,-0.0109 -0.01211,-0.0113 -0.01211,-0.0293 0,-0.0219 0.01875,-0.034 0.0094,-0.006 0.04024,-0.006 v -0.19454 q -0.02539,0 -0.0375,-0.0113 -0.01211,-0.0113 -0.01211,-0.0289 0,-0.0176 0.01211,-0.0285 0.0125,-0.0113 0.04141,-0.0113 z"
             style="font-family:'Courier New';-inkscape-font-specification:'Courier New, Bold'"
             id="path1579" />
          <path
             d="m 59.310835,185.47453 -0.02227,0.24142 q -0.0016,0.0188 -0.0125,0.0293 -0.01094,0.0102 -0.02735,0.0102 -0.01641,0 -0.02735,-0.0102 -0.01094,-0.0105 -0.0125,-0.0293 l -0.02266,-0.24142 q -0.0016,-0.0184 -0.0016,-0.0242 0,-0.0305 0.01836,-0.0488 0.01836,-0.0187 0.04571,-0.0187 0.02695,0 0.04531,0.0187 0.01875,0.0188 0.01875,0.0473 0,0.006 -0.002,0.0258 z m -0.01289,0.39768 q 0,0.0172 -0.01289,0.0293 -0.01289,0.0117 -0.03555,0.0117 -0.02266,0 -0.03555,-0.0117 -0.01289,-0.0121 -0.01289,-0.0293 0,-0.0168 0.0125,-0.0285 0.01289,-0.0121 0.03594,-0.0121 0.02305,0 0.03555,0.0117 0.01289,0.0117 0.01289,0.0289 z"
             style="font-family:'Courier New';-inkscape-font-specification:'Courier New, Bold'"
             id="path1581" />
          <path
             d="m 59.790938,185.47453 -0.02227,0.24142 q -0.0016,0.0188 -0.0125,0.0293 -0.01094,0.0102 -0.02735,0.0102 -0.01641,0 -0.02735,-0.0102 -0.01094,-0.0105 -0.0125,-0.0293 l -0.02266,-0.24142 q -0.0016,-0.0184 -0.0016,-0.0242 0,-0.0305 0.01836,-0.0488 0.01836,-0.0187 0.04571,-0.0187 0.02695,0 0.04531,0.0187 0.01875,0.0188 0.01875,0.0473 0,0.006 -0.002,0.0258 z m -0.01289,0.39768 q 0,0.0172 -0.01289,0.0293 -0.01289,0.0117 -0.03555,0.0117 -0.02266,0 -0.03555,-0.0117 -0.01289,-0.0121 -0.01289,-0.0293 0,-0.0168 0.0125,-0.0285 0.01289,-0.0121 0.03594,-0.0121 0.02305,0 0.03555,0.0117 0.01289,0.0117 0.01289,0.0289 z"
             style="font-family:'Courier New';-inkscape-font-specification:'Courier New, Bold'"
             id="path1583" />
          <path
             d="m 60.271041,185.47453 -0.02227,0.24142 q -0.0016,0.0188 -0.0125,0.0293 -0.01094,0.0102 -0.02734,0.0102 -0.01641,0 -0.02734,-0.0102 -0.01094,-0.0105 -0.0125,-0.0293 l -0.02266,-0.24142 q -0.0016,-0.0184 -0.0016,-0.0242 0,-0.0305 0.01836,-0.0488 0.01836,-0.0187 0.0457,-0.0187 0.02696,0 0.04532,0.0187 0.01875,0.0188 0.01875,0.0473 0,0.006 -0.002,0.0258 z m -0.01289,0.39768 q 0,0.0172 -0.01289,0.0293 -0.01289,0.0117 -0.03555,0.0117 -0.02266,0 -0.03555,-0.0117 -0.01289,-0.0121 -0.01289,-0.0293 0,-0.0168 0.0125,-0.0285 0.01289,-0.0121 0.03594,-0.0121 0.02305,0 0.03555,0.0117 0.01289,0.0117 0.01289,0.0289 z"
             style="font-family:'Courier New';-inkscape-font-specification:'Courier New, Bold'"
             id="path1585" />
        </g>
        <g
           aria-label="xMixing"
           id="text331"
           style="font-weight:bold;font-size:7.05556px;font-family:monospace;-inkscape-font-specification:'monospace, Bold';stroke-width:0.264583"
           transform="matrix(0.64760681,0,0,1,15.398208,0)">
          <path
             id="rect395"
             style="fill:#000000;stroke-width:0.106473"
             d="m 44.045034,184.29562 h 25.291302 c 0.193311,0 0.348936,0.15563 0.348936,0.34894 0,0.19331 -0.155625,0.34894 -0.348936,0.34894 H 44.045034 c -0.19331,0 -0.348936,-0.15563 -0.348936,-0.34894 0,-0.19331 0.155626,-0.34894 0.348936,-0.34894 z" />
        </g>
      </g>
    </g>
  </g>
</svg>
